<?xml version="1.0" encoding="utf-8"?>
<!-- Svg Vector Icons : http://www.onlinewebfonts.com/icon -->
<!DOCTYPE svg PUBLIC "-//W3C//DTD SVG 1.1//EN" "http://www.w3.org/Graphics/SVG/1.1/DTD/svg11.dtd">
<svg version="1.1" xmlns="http://www.w3.org/2000/svg" xmlns:xlink="http://www.w3.org/1999/xlink" x="0px" y="0px" viewBox="0 0 256 256" enable-background="new 0 0 256 256" xml:space="preserve">
<metadata> Svg Vector Icons : http://www.onlinewebfonts.com/icon </metadata>
<g><g><g><g><g><path fill="#000000" d="M65,201.1c25.3,7.6,51.7-4.7,62.9-27.6l11.9,3.3l0.2,8l65.2,19.5c0,0,9.3-4.8,11.4-14.2c2.2-9.3-2.2-16.6-2.2-16.6l-65.2-19.6l-3.7,6.3l-12.7-3.5c3.2-25.4-12.2-50.1-37.4-57.6c-28.2-8.5-57.9,7.6-66.3,35.7C20.7,162.9,36.8,192.6,65,201.1z M40.9,138.3c6.5-21.7,29.3-34,51.1-27.5c21.7,6.5,34,29.4,27.5,51.1c-6.5,21.7-29.4,34.1-51.1,27.6C46.7,182.9,34.4,160,40.9,138.3z"/><path fill="#000000" d="M10 206L10 216 21.4 216 69.1 248 186.9 248 234.6 216 246 216 246 206 z"/><path fill="#000000" d="M105.9,97.6c0,0,19.3-2.2,23.2-18.8c3.9-16.6-16.9-33.6-15.5-46.5C115.3,16.8,124.7,8,124.7,8s-33.2,14.4-18.8,39.8C120.3,73.3,129.1,82.1,105.9,97.6z"/><path fill="#000000" d="M145.3,97.6c0,0,19.4-2.2,23.2-18.8c3.9-16.6-16.9-33.6-15.5-46.5C154.7,16.8,164.1,8,164.1,8s-33.2,14.4-18.8,39.8C159.7,73.3,168.6,82.1,145.3,97.6z"/></g></g><g></g><g></g><g></g><g></g><g></g><g></g><g></g><g></g><g></g><g></g><g></g><g></g><g></g><g></g><g></g></g><g></g><g></g><g></g><g></g><g></g><g></g><g></g><g></g><g></g><g></g><g></g><g></g><g></g><g></g><g></g></g></g>
</svg>